# xmcd
#
# Track frame offsets:
#	150
#	21730
#	43374
#	64506
#	88160
#	112807
#	134557
#	155010
#	178787
#	199969
#	219698
#
# Disc length: 3277 seconds
#
# Revision: 4294835406
# Processed by: cddbd v1.5.2PL0 Copyright (c) Steve Scherf et al.
# Submitted via: EZCDAudioConverter 8.0.2.1
#
DISCID=ac0ccb0b
DTITLE=Various Artist - st. Phạm Mạnh Cương. Thu Ca
DYEAR=2003
DGENRE=Contemporary Blues
TTITLE0=Tuấn Ngọc - Suối lệ xanh
TTITLE1=Khánh Ly - Thung lũng hồng
TTITLE2=Trần Thái Hòa - Thu về trong mắt em
TTITLE3=Khánh Hà - Mắt lệ cho người tình
TTITLE4=Nguyễn Hưng - Thu ca
TTITLE5=Don Hồ - Như một khúc nhạc buồn
TTITLE6=Thủy Tiên - Tóc em chưa úa nắng hè
TTITLE7=Phương Diễm Hạnh - Thương hoài ngàn năm
TTITLE8=Ngọc Hạ - Giã từ Cố Đô
TTITLE9=Thanh Hà - Tình yêu đã mất
TTITLE10=Hợp Ca Thúy Nga Paris - LK Thu ca
EXTD=
EXTT0=
EXTT1=
EXTT2=
EXTT3=
EXTT4=
EXTT5=
EXTT6=
EXTT7=
EXTT8=
EXTT9=
EXTT10=
PLAYORDER=
